<svg xmlns="http://www.w3.org/2000/svg" viewBox="0 0 500 500" width="500" height="500">
  <defs>
    <linearGradient id="flameGrad" x1="0.5" y1="1" x2="0.5" y2="0">
      <stop offset="0%" stop-color="#FF4500"/>
      <stop offset="50%" stop-color="#FF6B35"/>
      <stop offset="100%" stop-color="#FFA500"/>
    </linearGradient>
  </defs>
  <!-- Flame outer shape -->
  <path d="M250 30 C250 30 140 140 110 250 C80 360 140 460 250 470 C360 460 420 360 390 250 C360 140 250 30 250 30Z" fill="url(#flameGrad)"/>
  <!-- Small flame left -->
  <path d="M155 120 C155 120 130 160 135 200 C140 230 160 240 165 210 C170 180 155 120 155 120Z" fill="url(#flameGrad)" opacity="0.9"/>
  <!-- Small flame right -->
  <path d="M345 100 C345 100 360 140 355 180 C350 210 335 220 330 195 C325 170 345 100 345 100Z" fill="url(#flameGrad)" opacity="0.9"/>
  <!-- WhatsApp phone icon (white, centered in flame) -->
  <g transform="translate(250,280)">
    <!-- Phone circle -->
    <circle cx="0" cy="0" r="100" fill="white"/>
    <!-- Phone cutout -->
    <path d="M-10 -60 C-50 -50 -70 -10 -70 30 C-70 50 -60 70 -40 80 L-40 95 C-40 95 -25 85 -15 80 C-5 83 5 85 15 85 C55 85 85 55 85 20 C85 -20 60 -55 25 -65 C10 -68 -5 -65 -10 -60Z" fill="url(#flameGrad)"/>
    <!-- Phone handle -->
    <path d="M-30 10 C-30 -15 -15 -35 10 -40 C15 -41 20 -38 18 -33 C15 -25 5 -18 -5 -10 C-15 -2 -20 10 -18 22 C-15 35 -5 45 5 50 C15 55 25 55 35 50 C40 48 42 42 38 38 C30 30 20 35 10 30 C0 25 -5 15 -5 5" fill="none" stroke="white" stroke-width="12" stroke-linecap="round"/>
  </g>
</svg>
